<?xml version="1.0" encoding="UTF-8" standalone="no"?>
<!-- Created with Inkscape (http://www.inkscape.org/) -->

<svg
   width="210mm"
   height="297mm"
   viewBox="0 0 210 297"
   version="1.1"
   id="svg5"
   sodipodi:docname="drawing.svg"
   inkscape:version="1.1.2 (0a00cf5339, 2022-02-04)"
   xmlns:inkscape="http://www.inkscape.org/namespaces/inkscape"
   xmlns:sodipodi="http://sodipodi.sourceforge.net/DTD/sodipodi-0.dtd"
   xmlns="http://www.w3.org/2000/svg"
   xmlns:svg="http://www.w3.org/2000/svg">
  <sodipodi:namedview
     id="namedview7"
     pagecolor="#ffffff"
     bordercolor="#666666"
     borderopacity="1.0"
     inkscape:pageshadow="2"
     inkscape:pageopacity="0.0"
     inkscape:pagecheckerboard="0"
     inkscape:document-units="mm"
     showgrid="false"
     inkscape:zoom="0.75187991"
     inkscape:cx="130.33996"
     inkscape:cy="561.92484"
     inkscape:window-width="1920"
     inkscape:window-height="1016"
     inkscape:window-x="0"
     inkscape:window-y="27"
     inkscape:window-maximized="1"
     inkscape:current-layer="layer1" />
  <defs
     id="defs2">
    <inkscape:path-effect
       effect="fillet_chamfer"
       id="path-effect4456"
       is_visible="true"
       lpeversion="1"
       satellites_param="F,0,0,1,0,92.604167,0,1 @ F,0,0,1,0,92.604167,0,1 @ F,0,0,1,0,92.604167,0,1 @ F,0,0,1,0,92.604167,0,1"
       unit="px"
       method="auto"
       mode="F"
       radius="350"
       chamfer_steps="1"
       flexible="false"
       use_knot_distance="true"
       apply_no_radius="true"
       apply_with_radius="true"
       only_selected="false"
       hide_knots="false" />
  </defs>
  <g
     inkscape:label="Layer 1"
     inkscape:groupmode="layer"
     id="layer1">
    <g
       id="g110"
       transform="matrix(0.26458333,0,0,0.26458333,17.36162,57.747494)"
       style="fill:#ffd700;fill-opacity:1">
      <path
         id="rect98"
         d="M 158.22266 218.25781 A 92.604166 92.604166 0 0 0 65.619141 310.86328 L 65.619141 755.6543 A 92.604166 92.604166 0 0 0 158.22266 848.25781 L 603.01367 848.25781 A 92.604166 92.604166 0 0 0 695.61914 755.6543 L 695.61914 730.94727 L 623.64062 646.95312 C 621.70969 648.48777 619.66572 650.00376 617.63086 651.51953 C 636.49448 667.22025 646.68945 686.91968 646.68945 716.4375 C 646.68945 769.7375 604.81789 798.9375 548.58789 798.9375 C 493.60789 798.9375 458.08898 772.73844 440.70898 738.39844 L 488.81836 710.44727 C 501.50836 731.16727 518.01875 746.39844 547.21875 746.39844 C 571.74875 746.39844 587.41797 734.13727 587.41797 717.19727 C 587.41797 701.2382 577.35309 693.37054 559.97852 685.00195 C 525.47308 700.55311 486.93331 711.03125 451.64844 711.03125 C 436.99582 711.03125 422.66436 709.73537 408.70898 707.38477 L 408.70898 709.62891 C 408.70898 770.92891 372.76859 798.82812 320.30859 798.82812 C 272.90859 798.82813 245.45805 774.29891 231.49805 744.75391 L 279.68945 715.57812 C 288.98945 732.07812 297.44906 746.02734 317.78906 746.02734 C 337.23906 746.02734 349.50781 738.41812 349.50781 708.82812 L 349.50781 689.79297 C 263.49194 652.24187 203.60547 568.80549 203.60547 471.8418 C 203.60547 339.75362 314.67199 232.65234 451.64844 232.65234 C 573.40384 232.65234 674.61328 317.29812 695.61914 428.87109 L 695.61914 310.86328 A 92.604166 92.604166 0 0 0 603.01367 218.25781 L 158.22266 218.25781 z M 454.25 262.50586 C 344.00929 262.50586 234.03906 367.05672 234.03906 473.36328 C 234.03906 544.94397 283.53398 616.05462 349.50781 654.9082 L 349.50781 507.52734 L 408.70898 507.52734 L 408.70898 679.39648 C 423.4031 683.03948 438.38014 685.05273 453.38867 685.05273 C 478.23198 685.05273 502.95016 679.65963 526.35938 670.14844 C 485.42877 652.16816 458.41797 629.33326 458.41797 582.34766 C 458.41797 537.94766 492.24914 504.14844 545.11914 504.14844 C 582.75914 504.14844 609.81836 517.24883 629.31836 551.54883 L 583.21875 581.14844 C 573.06875 562.94844 562.11914 555.77734 545.11914 555.77734 C 527.77914 555.77734 516.78906 566.77844 516.78906 581.14844 C 516.78906 598.90844 527.78945 606.09766 553.18945 617.09766 L 567.98828 623.4375 C 575.26588 626.55833 582.02811 629.69964 588.36914 632.91992 C 637.6771 592.29658 671.67773 532.95467 671.67773 473.32617 C 671.67773 367.01961 564.49071 262.50586 454.25 262.50586 z M 695.61914 515.87695 C 688.0459 556.77654 670.13167 594.61494 644.15625 625.12695 L 695.61914 674.29688 L 695.61914 515.87695 z "
         transform="translate(-65.618722,-218.25825)"
         style="fill:#ffd700;fill-opacity:1" />
    </g>
    <g
       style="fill:#000000"
       id="g96"
       transform="matrix(0.31162239,0,0,0.30050154,53.870818,61.497028)">
      <g
         id="g87">
	
</g>
    </g>
  </g>
</svg>
